<?xml version="1.0" encoding="utf-8"?>
<!-- Generator: Adobe Illustrator 18.0.0, SVG Export Plug-In . SVG Version: 6.00 Build 0)  -->
<!DOCTYPE svg PUBLIC "-//W3C//DTD SVG 1.1//EN" "http://www.w3.org/Graphics/SVG/1.1/DTD/svg11.dtd">
<svg version="1.1" id="Arrow_1_" xmlns="http://www.w3.org/2000/svg" xmlns:xlink="http://www.w3.org/1999/xlink" x="0px" y="0px"
	 width="500px" height="500px" viewBox="0 0 500 500" enable-background="new 0 0 500 500" xml:space="preserve">
  <metadata>
    <?xpacket begin="﻿" id="W5M0MpCehiHzreSzNTczkc9d"?>
    <x:xmpmeta xmlns:x="adobe:ns:meta/" x:xmptk="Adobe XMP Core 5.6-c011 79.156380, 2014/06/19-23:40:37        ">
     <rdf:RDF xmlns:rdf="http://www.w3.org/1999/02/22-rdf-syntax-ns#">
      <rdf:Description rdf:about=""
        xmlns:xmpMM="http://ns.adobe.com/xap/1.0/mm/"
        xmlns:stEvt="http://ns.adobe.com/xap/1.0/sType/ResourceEvent#"
        xmlns:xmp="http://ns.adobe.com/xap/1.0/"
        xmlns:xmpRights="http://ns.adobe.com/xap/1.0/rights/"
        xmlns:dc="http://purl.org/dc/elements/1.1/"
       xmpMM:DocumentID="xmp.did:a2fe10868835c2637adb4bf9fd101601"
       xmpMM:OriginalDocumentID="xmp.did:a2fe10868835c2637adb4bf9fd101601"
       xmpMM:InstanceID="xmp.iid:a2fe10868835c2637adb4bf9fd101601"
       xmp:ModifyDate="2015-04-17T10:30:14+02:00"
       xmp:MetadataDate="2015-04-17T10:30:14+02:00"
       xmpRights:Marked="True"
       xmpRights:WebStatement="http://www.adobe.com/legal/general-terms.html">
       <xmpMM:History>
        <rdf:Seq>
         <rdf:li
          stEvt:action="saved"
          stEvt:instanceID="xmp.iid:a2fe10868835c2637adb4bf9fd101601"
          stEvt:when="2015-04-17T10:30:14+02:00"/>
        </rdf:Seq>
       </xmpMM:History>
       <xmpRights:UsageTerms>
        <rdf:Alt>
         <rdf:li xml:lang="x-default">This work is licensed under the Adobe General Terms of Use http://www.adobe.com/legal/general-terms.html.</rdf:li>
        </rdf:Alt>
       </xmpRights:UsageTerms>
       <dc:publisher>
        <rdf:Bag>
         <rdf:li>Adobe Systems Incorporated</rdf:li>
        </rdf:Bag>
       </dc:publisher>
      </rdf:Description>
     </rdf:RDF>
    </x:xmpmeta>
    <?xpacket end="r"?>
  </metadata>
<g>
	<g>
		<ellipse fill="#F39943" cx="250" cy="250" rx="250" ry="249.8"/>
	</g>
	<g>
		<path fill="#CB7A2D" d="M312,492c89.4-22.8,159.4-93.7,181-183.4L330.2,141.7l-57.6,58.5L194.5,130L175,145.6l-15.6,27.3
			l-7.8,27.3v31.2l7.8,35.1c0,0,25.2,47.1,30.6,48.8l60.6,60.6l-43.4,9.2L312,492z"/>
	</g>
	<g>
		<path fill="#FFF6E4" d="M334.7,311.5l-8.7-12.5l-10.2,7.2l5,7.2c-48.6,30.5-113.5,17.9-147-29.5c-33.4-47.2-23.9-112.1,20.5-148
			l4.3,7.8l10.2-7.4l-7-12.7c-0.9-1.6-2.3-2.7-4.1-3.1c-1.7-0.4-3.6,0-5,1c-54.8,38.7-67.8,114.8-29.1,169.6
			c18.9,26.7,46.7,43.5,76.6,49.2c0,5,0,14.2,0,14.8c0,2.5-1.7,3.6-11.4,7.3l-4.6,1.8c-4.2,1.7-8.6,3.4-12.6,5.6
			c-0.8,0.4-1.6,0.9-2.5,1.4l-1.7,1.1c-3.3,2.4-3.9,5-3.9,6.8c0,7.2,10.2,10,13.6,10.9c4.5,1.2,10.1,2.2,16.3,2.8
			c4.9,0.5,10.1,0.8,15.5,0.9l3,0l3,0c5.4-0.1,10.6-0.4,15.5-0.9c6.3-0.7,11.8-1.6,16.3-2.8c3.4-0.9,13.6-3.7,13.6-10.9
			c0-1.8-0.7-4.4-3.4-6.3c-0.3-0.3-0.6-0.5-0.9-0.7l-3.9-2.3c-4.1-2.3-8.5-4-12.7-5.6c-1.4-0.6-2.9-1.1-4.3-1.6
			c-7-2.6-11.6-4.5-11.6-7.3v-0.4c0-0.9,0-7.5,0-12.4c24.2-0.1,48.5-7.3,69.7-22.3C336,318.1,336.7,314.3,334.7,311.5z"/>
	</g>
	<g>
		<circle fill="#0680BF" cx="264.8" cy="219.8" r="101.5"/>
	</g>
	<g>
		<path fill="#006EA7" d="M264.8,118.3c-2.6,0-5.2,0.1-7.8,0.3v202.3c2.6,0.2,5.2,0.3,7.8,0.3c56,0,101.5-45.4,101.5-101.5
			C366.3,163.7,320.9,118.3,264.8,118.3z"/>
	</g>
	<g>
		<path fill="#9FC24B" d="M311.4,255c-3.2-3.7-8.7-3.1-12.8-4.9c-4.5-1.9-5.8-5-8.5-8.7c-5.5-7.8-15.7-8.3-24-10.8
			c-4.4-1.4-7.6,1.5-11.4,3.4c-1.5,0.8-3.8,1.6-5.5,1c-3-1-1.8-3-1.8-5.3c0-3-0.9-3-3.4-3.9c-1.9-0.7-4.2-1.6-2.8-4.1
			c0.9-1.6,3.4-1.9,0.8-4c-2-1.6-3.5-0.1-5.3,1c-3.7,2.4-8.8,2.7-8.1-3.3c0.5-3.8,5.1-8.9,8.3-10.5c3.8-1.9,9.3-1.7,12.2,1.3
			c1.2,1.3,2.5,4.1,4,4.9c3.1,1.6,1.9-1.9,0.8-3.6c-1.1-1.7-3.2-3.2-2.2-5.5c0.7-1.7,3.3-2.5,4.8-3.3c2.5-1.4,3.9-2.6,4.8-5.5
			c0.5-1.7-0.1-4.4,1.2-5.8c1.1-1.2,4.5-1.7,6.1-2.8c2-1.4,3.1-3.4,4.9-4.9c2.6-2.2,3.1,0.2,6,0c3.2-0.2,2.6-2.5,1-4.4
			c-0.1-0.1-1.3-0.1-1.5-0.1c0-1.2,2.2-3,1.2-4.3c-0.9-1.1-4,0.3-5.1,0.2c0.3-2.7,3.5-2.6,5.4-2.2c2.9,0.5,3.6,0.8,6.3-0.6
			c1.3-0.6,1.2-0.8,2.8-1c1.2-0.1,1.9,1.1,2.9-0.3c2-2.6-1.6-3.9-3.4-3.7c0.1-1.3,0.7-3.1-0.1-4.3c-0.9-1.4-2.5-1-3.1-2.9
			c-0.2-0.7,0.2-1.6,0-2.3c-0.2-0.7-0.8-1-1-1.6c-0.4-1.7,0-3.1-0.1-4.9c-4.5-1.5-4.3,2.4-5.9,4.9c-1.8-3.7,0-9.2-5.3-10.9
			c-5.6-1.7-5.8,8-6.4,11.5c-0.4,2.2,0.2,3.8-1.4,5.9c-0.4,0.5-1.2,0.9-1.6,1.6c-0.6,1-0.3,2.1-0.8,3c-0.4,0.8-1.6,2.2-2.6,2.2
			c-2,0-1.6-2.7-2.1-4.1c-0.6-1.7-2.5-5.5-4.1-6.5c-1.5-0.9-2.7,0-4.4,0c-0.4-2.2,0.9-5.4,1.3-7.7c0.4-3.1,2.1-5.5,4.7-7.2
			c2.2-1.4,4.4-2.2,5.2-4.9c0.4-1.2-0.5-4.6-1.4-8.2c-23.1,0.7-44.1,9.8-60.1,24.2c0.6,4.8,1.1,9.6,1.3,10.8
			c0.2,1.1,0.9,1.8,1.1,2.8c0.3,1.5-0.3,2.1-0.5,3.4c-1.2,7.9-5.5,16.5-1.9,24.2c0.9,2,2.3,3.3,3.5,4.9c1.3,1.7,1.5,3.9,2.3,6
			c1.2,3.2,2.6,10,6.4,11.5c0.2-2.7-2.1-4.6-2.6-7c-0.4-2.2-1.1-5.4-0.7-7.5c0.1,0,0.6,0,0.7,0c1.3,3.6,3.3,7.5,5.2,10.9
			c0.9,1.6,2.4,3,3.1,4.7c0.8,1.8-0.2,3.8,0.9,5.4c1.9,2.6,8.6,3.5,11.4,4.2c3.6,0.9,7.4,2.1,11,3.4c1.6,0.6,1.3,0.1,2.4,1.6
			c0.6,0.8,1,2.1,1.4,2.9c1,1.8,1.5,3.5,3.4,4.2c1.9,0.7,4.4-0.5,6.3,0c2.6,0.6,2.4,2.9,1.6,5.2c-1.3,3.7-5.1,6-4.9,10.2
			c0.2,5.2,5.9,9.1,8,13.6c0.9,1.9,0.9,4.3,2.4,6c1.7,2,3.4,1.7,3.9,4.4c1.3,6.7-1.1,14.1-1.1,20.8c0,4.8-1.1,11.7-1.3,17.7
			c4.6,0,9.1-0.5,13.6-1.1c2.7-5.2,8.3-8.7,11.5-14.4c2.7-4.7,3.9-9.6,8.3-13c3-2.4,7.1-4,9.4-7.2c2.5-3.5,1.7-8.1,4.1-11.8
			C312.1,264.1,314.4,258.4,311.4,255z"/>
	</g>
	<g>
		<path fill="#8DAD3F" d="M311.4,255c-3.2-3.7-8.7-3.1-12.8-4.9c-4.5-1.9-5.8-5-8.5-8.7c-5.5-7.8-15.7-8.3-24-10.8
			c-3.5-1.1-6.2,0.5-9.1,2.1v30.1c0.9,1.1,1.7,2.2,2.2,3.4c0.9,1.9,0.9,4.3,2.4,6c1.7,2,3.4,1.7,3.9,4.4c1.3,6.7-1.1,14.1-1.1,20.8
			c0,4.8-1.1,11.7-1.3,17.7c4.6,0,9.1-0.5,13.6-1.1c2.7-5.2,8.3-8.7,11.5-14.4c2.7-4.7,3.9-9.6,8.3-13c3-2.4,7.1-4,9.4-7.2
			c2.5-3.5,1.7-8.1,4.1-11.8C312.1,264.1,314.4,258.4,311.4,255z M261.4,134.8c0.4-1.2-0.5-4.6-1.4-8.2c-1,0-2,0.2-2.9,0.2v12.3
			C258.9,138.1,260.7,137.2,261.4,134.8z M261.2,193.2c0.5-1.7-0.1-4.4,1.2-5.8c1.1-1.2,4.5-1.7,6.1-2.8c2-1.4,3.1-3.4,4.9-4.9
			c2.6-2.2,3.1,0.2,6,0c3.2-0.2,2.6-2.5,1-4.4c-0.1-0.1-1.3-0.1-1.5-0.1c0-1.2,2.2-3,1.2-4.3c-0.9-1.1-4,0.3-5.1,0.2
			c0.3-2.7,3.5-2.6,5.4-2.2c2.9,0.5,3.6,0.8,6.3-0.6c1.3-0.6,1.2-0.8,2.8-1c1.2-0.1,1.9,1.1,2.9-0.3c2-2.6-1.6-3.9-3.4-3.7
			c0.1-1.3,0.7-3.1-0.1-4.3c-0.9-1.4-2.5-1-3.1-2.9c-0.2-0.7,0.2-1.6,0-2.3c-0.2-0.7-0.8-1-1-1.6c-0.4-1.7,0-3.1-0.1-4.9
			c-4.5-1.5-4.3,2.4-5.9,4.9c-1.8-3.7,0-9.2-5.3-10.9c-5.6-1.7-5.8,8-6.4,11.5c-0.4,2.2,0.2,3.8-1.4,5.9c-0.4,0.5-1.2,0.9-1.6,1.6
			c-0.6,1-0.3,2.1-0.8,3c-0.4,0.8-1.6,2.2-2.6,2.2c-2,0-1.6-2.7-2.1-4.1c-0.3-0.9-1-2.3-1.7-3.6v40.9
			C259.1,197.1,260.4,195.8,261.2,193.2z"/>
	</g>
</g>
</svg>
